<svg id="Group_1067" data-name="Group 1067" xmlns="http://www.w3.org/2000/svg" width="88.141" height="81.039" viewBox="0 0 88.141 81.039">
  <path id="Path_315" data-name="Path 315" d="M964.334-341.806a15.815,15.815,0,0,1-3.406,1.773,4.225,4.225,0,0,1-5-5.094,1.156,1.156,0,0,0-.357-1.25c-1.772-1.727-3.518-3.481-5.3-5.255a33.3,33.3,0,0,1-2.747,2.556c-2.987,2.229-6.034,4.378-9.06,6.556a1.326,1.326,0,0,1-1.584-.049c-4.554-2.694-9.054-5.458-12.591-9.5-.034-.039-.1-.048-.2-.09-1.827,1.816-3.673,3.633-5.485,5.483a1.05,1.05,0,0,0-.111.8,4.352,4.352,0,0,1-2.1,4.814,4.314,4.314,0,0,1-5.195-.73,9.818,9.818,0,0,1-.732-.893c-1.442,1.428-2.78,2.733-4.083,4.072-.144.149-.121.5-.114.752a6.4,6.4,0,0,1-6.223,6.724,6.655,6.655,0,0,1-6.861-5.879c-.422-3.382,2-6.876,5.386-7.178a5.4,5.4,0,0,0,3.644-1.958c.745-.766,1.566-1.457,2.528-2.342a17.958,17.958,0,0,1-1.467-1.242,4.3,4.3,0,0,1-.656-5.132,4.244,4.244,0,0,1,4.727-2.079,1.066,1.066,0,0,0,1.147-.41c2.441-2.457,4.875-4.921,7.35-7.342a1.251,1.251,0,0,0,.37-1.545,51.925,51.925,0,0,1-2.933-17.833c-.008-1.429.122-2.862.256-4.286a1.566,1.566,0,0,0-.511-1.411c-2.424-2.389-4.785-4.842-7.232-7.207-3.788-3.66-5.206-8.163-4.916-13.312a1.155,1.155,0,0,1,1.256-1.2A16.548,16.548,0,0,1,916-406.17c2.563,2.75,5.307,5.331,7.944,8.014a1.036,1.036,0,0,0,1.317.288,24.676,24.676,0,0,0,9.871-7.06c.135-.159.265-.323.4-.481.759-.874,1.276-.912,2.071-.078a24.311,24.311,0,0,0,6.93,5.309c2.082,1,4.3,1.718,6.457,2.572a1.044,1.044,0,0,0,1.251-.369c2.813-2.845,5.695-5.622,8.457-8.515,3.744-3.92,8.354-5.327,13.629-5a1.09,1.09,0,0,1,1.143,1.125c.293,5-.968,9.452-4.605,13.075-2.983,2.97-5.938,5.967-8.93,8.929a1.613,1.613,0,0,0-.553,1.483,43.379,43.379,0,0,1-3,21.393,1.221,1.221,0,0,0,.356,1.545c2.413,2.358,4.787,4.754,7.154,7.159a1.243,1.243,0,0,0,1.319.427,4.235,4.235,0,0,1,4.576,2.049,4.292,4.292,0,0,1-.486,5,15.076,15.076,0,0,1-1.5,1.287c1.478,1.484,2.781,2.823,4.131,4.112.186.177.611.137.926.14a6.625,6.625,0,0,1,6.407,6.071,6.67,6.67,0,0,1-5.689,7.111,6.53,6.53,0,0,1-7.23-4.78,2.854,2.854,0,0,1-.158-1.142,2.678,2.678,0,0,0-1.157-2.594C966.039-340,965.133-341,964.334-341.806ZM936.74-403.269c-.105.016-.141.011-.16.026a1.511,1.511,0,0,0-.2.174,26.564,26.564,0,0,1-19.234,8.987.943.943,0,0,0-.661.591,49.613,49.613,0,0,0,.936,23.988,40.392,40.392,0,0,0,7.115,14.416c3.495,4.379,7.963,7.513,12.776,10.222a1.087,1.087,0,0,0,.919-.126c1.714-1.14,3.407-2.312,5.092-3.494a29.9,29.9,0,0,0,7.824-7.675c6.28-9.347,9.355-19.585,8.036-30.906-.3-2.553-1-5.058-1.509-7.564A29.793,29.793,0,0,1,936.74-403.269Zm17.63,6.051.147.412c1.249,0,2.5-.064,3.744.027a1.574,1.574,0,0,0,1.382-.55c2.686-2.713,5.394-5.4,8.1-8.1.19-.189.371-.5.586-.528.453-.06,1.1-.14,1.344.106s.185.894.114,1.342c-.039.243-.373.444-.583.655q-4.43,4.429-8.856,8.86c-.2.2-.482.507-.441.7.271,1.286.62,2.555.869,3.534,3.174-3.039,6.508-5.991,9.549-9.22,2.386-2.533,3.153-5.8,2.985-9.265a1.585,1.585,0,0,0-.307-.091,13.164,13.164,0,0,0-10.167,3.784c-1.963,1.917-3.876,3.886-5.824,5.818C956.146-398.876,955.251-398.054,954.37-397.218Zm-40.381,5.3c.209-1.119.448-2.127.562-3.149a1.6,1.6,0,0,0-.348-1.15c-2.278-2.4-4.6-4.764-6.909-7.139-.187-.192-.492-.376-.521-.592a2.21,2.21,0,0,1,.089-1.37c.33-.5.933-.451,1.424-.071a5.786,5.786,0,0,1,.574.563q3.9,4.009,7.809,8.012c.232.237.582.544.855.524,1.492-.114,2.977-.319,4.651-.515-.308-.361-.429-.523-.57-.664-2.7-2.7-5.383-5.418-8.1-8.1a13.377,13.377,0,0,0-2.091-1.671,13,13,0,0,0-8.3-2.058,13.047,13.047,0,0,0,3.754,10.312c2.174,2.214,4.38,4.4,6.573,6.591C913.574-392.254,913.736-392.135,913.99-391.92Zm2.462,46.674a7.426,7.426,0,0,0-.945-1.432c-2.326-2.391-4.7-4.737-7.056-7.1a7.6,7.6,0,0,0-.718-.669,2.146,2.146,0,0,0-2.5-.127,2.013,2.013,0,0,0-.938,2.233,3.471,3.471,0,0,0,.852,1.418c2.416,2.469,4.868,4.9,7.313,7.345a3.855,3.855,0,0,0,.753.624C914.658-342.1,916.46-343.161,916.451-345.245Zm41.517.685a2.271,2.271,0,0,0,1.3,2.313,2.076,2.076,0,0,0,2.462-.478c2.618-2.607,5.237-5.213,7.827-7.847a2.16,2.16,0,0,0,0-3.124,2.118,2.118,0,0,0-3.114.1q-3.907,3.867-7.756,7.791A4.747,4.747,0,0,0,957.968-344.56Zm16.7,11.885a4.539,4.539,0,0,0,4.454-4.181,4.469,4.469,0,0,0-3.753-4.719,1.706,1.706,0,0,0-1.691.524c-.926,1.011-1.949,1.933-2.881,2.939a1.856,1.856,0,0,0-.468,1.082A4.226,4.226,0,0,0,974.669-332.675ZM904.3-337.519a6.773,6.773,0,0,0-.757-1.291q-1.4-1.511-2.905-2.913a1.781,1.781,0,0,0-1.082-.442,4.342,4.342,0,0,0-4.249,4.306,4.546,4.546,0,0,0,4.418,4.591A4.6,4.6,0,0,0,904.3-337.519Zm8.157-15.416c2.072-2.072,4.165-4.156,6.24-6.257a.7.7,0,0,0,.176-.6c-.5-1.1-1.043-2.171-1.511-3.125l-7.461,7.411Zm49.509.5,2.54-2.5-7.353-7.325-1.643,3.391Zm-10.186-.934,5.628,5.567,2.94-2.9-6.073-6.081Zm-29.129-.587-2.431-3.435-6.131,6.1,2.928,2.933Zm-16.567,7.2-3.558,3.551,2.543,2.6,3.576-3.522Zm62.364.6-2.629,2.6,3.588,3.559,2.631-2.582Z" transform="translate(-893.145 411.54)" fill="#505046"/>
  <path id="Path_316" data-name="Path 316" d="M955.313-358.475h15.074c-.13-6.856-.257-13.556-.389-20.472a21.475,21.475,0,0,1-14.451,5.993c-.228,1.618-.443,3.177-.667,4.734-.137.954-.576,1.408-1.239,1.308-.68-.1-1.01-.668-.877-1.588.259-1.8.541-3.6.811-5.393a1.277,1.277,0,0,1,1.437-1.243,18.718,18.718,0,0,0,14.952-6.994c.761-.908,1.259-.939,2.066-.111a20.909,20.909,0,0,0,15.679,6.643,1.31,1.31,0,0,1,1.444,1.044c1.411,4.832,2.239,9.765,1.436,14.761-1.458,9.063-4.687,17.273-12.318,23.068-1.78,1.352-3.638,2.606-5.511,3.827a1.7,1.7,0,0,1-1.457.145,37.738,37.738,0,0,1-10.768-8.326,34.188,34.188,0,0,1-6.767-14.149c-.4-1.616-.6-3.281-.861-4.928a1.027,1.027,0,0,1,.875-1.324,1,1,0,0,1,1.233.978C955.12-359.8,955.221-359.1,955.313-358.475Zm16.832-20.668c.134,6.978.263,13.727.391,20.415h15.7a8.022,8.022,0,0,0,.2-.82,32.493,32.493,0,0,0-1.118-13.361,1.046,1.046,0,0,0-.74-.53c-1.03-.153-2.082-.159-3.108-.333A23.347,23.347,0,0,1,972.145-379.143Zm.81,43.456a29.672,29.672,0,0,0,10.488-9.867,41.222,41.222,0,0,0,4.345-10.9H972.57C972.7-349.459,972.826-342.638,972.955-335.687Zm-17.129-20.53c.743,7.622,9.12,19.053,14.977,20.473-.129-6.865-.257-13.71-.383-20.473Z" transform="translate(-927.389 395.045)" fill="#c48b60"/>
</svg>
