<svg id="Group_1094" data-name="Group 1094" xmlns="http://www.w3.org/2000/svg" width="82.419" height="82.273" viewBox="0 0 82.419 82.273">
  <path id="Path_347" data-name="Path 347" d="M25.678,987.662c0-1.037-.019-1.95,0-2.861a5.488,5.488,0,0,1,10.973-.031c.026.935,0,1.871,0,2.848h11c0-.951-.023-1.91,0-2.868a5.48,5.48,0,0,1,10.718-1.441,8.057,8.057,0,0,1,.251,1.856c.041.793.01,1.59.01,2.441h10.99c0-.9-.01-1.773,0-2.651a5.492,5.492,0,1,1,10.983,0c.012.856,0,1.711,0,2.7h.844c1.974,0,3.949-.013,5.923,0a6.823,6.823,0,0,1,6.963,6.948q.027,17.61.005,35.22c0,1.075-.527,1.706-1.383,1.7s-1.361-.634-1.361-1.719q0-10.926,0-21.852v-1.056H14.686v.88q0,20.566,0,41.132c0,2.894,1.677,4.559,4.589,4.559q18.543,0,37.085,0c.258,0,.515-.007.773,0a1.374,1.374,0,1,1,.006,2.738c-.2.009-.4,0-.6,0H19.368c-4.582,0-7.428-2.85-7.429-7.435q0-26.864,0-53.729c0-4.531,2.858-7.389,7.384-7.392C21.407,987.661,23.49,987.662,25.678,987.662Zm10.985,2.762c0,.873,0,1.667,0,2.461a5.5,5.5,0,1,1-10.987.015c0-.816,0-1.632,0-2.5-2.289,0-4.46-.007-6.631,0a4.121,4.121,0,0,0-4.355,4.359c-.009,2.857,0,5.713,0,8.57,0,.246.031.491.046.711H91.6c0-3.269.031-6.468-.011-9.666a3.911,3.911,0,0,0-3.532-3.9c-2.443-.153-4.9-.036-7.441-.036,0,.891.008,1.74,0,2.589a5.494,5.494,0,1,1-10.986-.018c-.008-.847,0-1.695,0-2.547H58.638c0,.971.02,1.883,0,2.793a5.487,5.487,0,0,1-10.972-.045c-.038-.927-.006-1.857-.006-2.789Zm-2.747-1.4c0-1.313.01-2.627,0-3.94a2.747,2.747,0,1,0-5.488-.022q-.02,3.983,0,7.967a2.745,2.745,0,1,0,5.486.021C33.93,991.705,33.916,990.363,33.916,989.021Zm16.484-.028c0,1.313-.007,2.627,0,3.94a2.751,2.751,0,1,0,5.489.035q.018-3.941,0-7.881a2.748,2.748,0,1,0-5.488-.035C50.389,986.366,50.4,987.679,50.4,988.993Zm27.472.073c0-1.313.008-2.627,0-3.94a2.751,2.751,0,1,0-5.489-.025q-.016,3.94,0,7.881a2.748,2.748,0,1,0,5.488.025C77.883,991.693,77.871,990.379,77.872,989.066Z" transform="translate(-11.939 -979.424)" fill="#505046"/>
  <path id="Path_348" data-name="Path 348" d="M233.873,1183.144a17.821,17.821,0,1,1-17.887,17.7A17.876,17.876,0,0,1,233.873,1183.144Zm-.006,32.905a15.081,15.081,0,1,0-15.133-15.075A15.134,15.134,0,0,0,233.867,1216.049Z" transform="translate(-169.28 -1136.513)" fill="#c48b60"/>
  <path id="Path_349" data-name="Path 349" d="M65.371,1138.78c-.887,0-1.774.014-2.66,0a2.73,2.73,0,0,1-2.8-2.746q-.039-2.055,0-4.112a2.7,2.7,0,0,1,2.723-2.728c1.83-.03,3.662-.027,5.492,0a2.719,2.719,0,0,1,2.76,2.783q.034,2.013,0,4.026a2.724,2.724,0,0,1-2.769,2.777C67.2,1138.8,66.286,1138.779,65.371,1138.78Zm-2.675-6.818v4.024h5.389v-4.024Z" transform="translate(-48.914 -1094.893)" fill="#505046"/>
  <path id="Path_350" data-name="Path 350" d="M137.436,1138.779c-.915,0-1.831.018-2.746,0a2.731,2.731,0,0,1-2.762-2.785q-.032-2.012,0-4.026a2.707,2.707,0,0,1,2.765-2.775c1.83-.025,3.662-.028,5.492,0a2.71,2.71,0,0,1,2.719,2.736q.041,2.055,0,4.112a2.722,2.722,0,0,1-2.722,2.736C139.267,1138.8,138.351,1138.779,137.436,1138.779Zm-2.747-2.813h5.418v-3.977h-5.418Z" transform="translate(-104.451 -1094.893)" fill="#505046"/>
  <path id="Path_351" data-name="Path 351" d="M209.438,1129.2c.887,0,1.774-.014,2.66,0a2.728,2.728,0,0,1,2.8,2.742q.042,2.055,0,4.112a2.707,2.707,0,0,1-2.723,2.732c-1.859.031-3.719.034-5.578,0a2.7,2.7,0,0,1-2.671-2.694q-.047-2.1,0-4.2a2.7,2.7,0,0,1,2.677-2.687C207.55,1129.18,208.494,1129.2,209.438,1129.2Zm2.686,2.8h-5.387v4.007h5.387Z" transform="translate(-159.965 -1094.913)" fill="#505046"/>
  <path id="Path_352" data-name="Path 352" d="M281.5,1129.2c.887,0,1.774-.019,2.66,0a2.722,2.722,0,0,1,2.741,2.717c.03,1.4.034,2.8,0,4.2a2.7,2.7,0,0,1-2.7,2.67q-2.788.05-5.578,0a2.7,2.7,0,0,1-2.694-2.672c-.034-1.427-.039-2.856,0-4.283a2.688,2.688,0,0,1,2.649-2.625C279.558,1129.177,280.532,1129.2,281.5,1129.2Zm2.627,2.783h-5.407V1136h5.407Z" transform="translate(-215.487 -1094.912)" fill="#505046"/>
  <path id="Path_353" data-name="Path 353" d="M65.424,1183.117c.915,0,1.831-.022,2.746.005a2.712,2.712,0,0,1,2.7,2.669c.037,1.427.04,2.856,0,4.283a2.682,2.682,0,0,1-2.647,2.627q-2.831.06-5.663,0a2.687,2.687,0,0,1-2.652-2.623c-.041-1.427-.037-2.856,0-4.283a2.7,2.7,0,0,1,2.691-2.673C63.535,1183.094,64.48,1183.117,65.424,1183.117Zm2.67,2.8H62.707v4.008h5.388Z" transform="translate(-48.902 -1136.485)" fill="#505046"/>
  <path id="Path_354" data-name="Path 354" d="M137.438,1183.117c.915,0,1.831-.022,2.746.005a2.712,2.712,0,0,1,2.7,2.671c.036,1.427.04,2.856,0,4.283a2.682,2.682,0,0,1-2.649,2.624q-2.831.059-5.664,0a2.687,2.687,0,0,1-2.649-2.625c-.041-1.427-.037-2.856,0-4.283a2.7,2.7,0,0,1,2.693-2.67C135.549,1183.095,136.494,1183.117,137.438,1183.117Zm2.688,2.8h-5.412v3.987h5.412Z" transform="translate(-104.43 -1136.486)" fill="#505046"/>
  <path id="Path_355" data-name="Path 355" d="M65.388,1246.611c-.915,0-1.831.02-2.746-.005a2.722,2.722,0,0,1-2.731-2.727q-.042-2.055,0-4.112a2.707,2.707,0,0,1,2.793-2.747q2.7-.032,5.406,0a2.722,2.722,0,0,1,2.777,2.767q.036,2.013,0,4.026a2.731,2.731,0,0,1-2.839,2.8C67.162,1246.624,66.275,1246.612,65.388,1246.611Zm-2.721-2.793h5.418v-3.994H62.668Z" transform="translate(-48.915 -1178.044)" fill="#505046"/>
  <path id="Path_356" data-name="Path 356" d="M137.4,1246.6c-.916,0-1.831.021-2.746,0a2.724,2.724,0,0,1-2.737-2.721c-.029-1.4-.033-2.8,0-4.2a2.688,2.688,0,0,1,2.7-2.665q2.788-.048,5.578,0a2.7,2.7,0,0,1,2.693,2.672c.036,1.427.041,2.856,0,4.282a2.7,2.7,0,0,1-2.652,2.624C139.288,1246.624,138.343,1246.6,137.4,1246.6Zm2.709-6.8H134.72v4.015h5.388Z" transform="translate(-104.436 -1178.032)" fill="#505046"/>
  <path id="Path_357" data-name="Path 357" d="M206.658,1185.835v4.027c.179.074.361.138.533.222a1.273,1.273,0,0,1,.772,1.545,1.334,1.334,0,0,1-1.467,1.056,2.715,2.715,0,0,1-2.579-2.522c-.06-1.511-.06-3.029,0-4.54a2.639,2.639,0,0,1,2.574-2.513c1.859-.047,3.72-.03,5.579-.007a1.351,1.351,0,0,1,1.432,1.383,1.369,1.369,0,0,1-1.476,1.343C210.26,1185.849,208.494,1185.835,206.658,1185.835Z" transform="translate(-159.939 -1136.464)" fill="#505046"/>
  <path id="Path_358" data-name="Path 358" d="M258.176,1245.4a6.721,6.721,0,0,1,.607-.858q4.689-4.7,9.4-9.391c.162-.162.317-.33.488-.481a1.372,1.372,0,1,1,1.919,1.958c-.113.128-.24.245-.361.366q-5.4,5.389-10.8,10.778c-1.09,1.087-1.662,1.091-2.732.024-1.74-1.735-3.5-3.446-5.194-5.228a2.054,2.054,0,0,1-.547-1.489c.174-1.124,1.5-1.375,2.4-.5C254.9,1242.1,256.424,1243.649,258.176,1245.4Z" transform="translate(-196.236 -1175.897)" fill="#c48b60"/>
</svg>
