<svg xmlns="http://www.w3.org/2000/svg" width="81.101" height="81.106" viewBox="0 0 81.101 81.106">
  <g id="Group_1068" data-name="Group 1068" transform="translate(0 0)">
    <path id="Path_306" data-name="Path 306" d="M705.44-387.254v23.125a4.455,4.455,0,0,0-.138.524,14.809,14.809,0,0,1-6.273,10.3c-4.426,3.2-8.863,6.379-13.277,9.592a4.138,4.138,0,0,1-2.569.818q-23.039-.026-46.077-.012c-3.076,0-4.661-1.6-4.661-4.69q0-19.159,0-38.318v-1.069c-1.285.993-2.432,1.866-3.563,2.759a2.662,2.662,0,0,1-3.022.426,2.7,2.7,0,0,1-1.516-2.654c.015-2.3.021-4.592,0-6.888a3.005,3.005,0,0,1,1.272-2.575c2.8-2.154,5.554-4.377,8.394-6.481a2.594,2.594,0,0,0,1.167-2.418c-.066-4.063-.034-8.128-.023-12.192a2.652,2.652,0,0,1,2.667-2.912q4.116-.058,8.233,0a2.561,2.561,0,0,1,2.6,2.473c.076.918.024,1.846.038,2.769,0,.214.041.428.075.762L661.725-424h.95c.347.274.692.55,1.041.821q7.393,5.754,14.786,11.508,10.047,7.815,20.1,15.618a3.3,3.3,0,0,1,1.446,2.974c-.043.762.032,1.531-.021,2.292a.944.944,0,0,0,.7,1.113c1.105.422,2.19.905,3.252,1.427A12.009,12.009,0,0,1,705.44-387.254ZM662.218-410.1c-.151.1-.22.141-.282.189q-13.187,10.249-26.36,20.517a1.408,1.408,0,0,0-.413.994q-.03,20.469-.017,40.938c0,1.413.443,1.861,1.835,1.861q5.424,0,10.848,0h.856c0-.395,0-.706,0-1.017q0-12.194,0-24.389a4.048,4.048,0,0,1,4.36-4.344c2.745-.008,5.49,0,8.235,0h.91v-.95c0-3.326.023-6.651-.014-9.977a1.782,1.782,0,0,1,1.212-1.884c4.284-1.842,8.551-3.723,12.824-5.593,1.46-.638,2.916-1.284,4.486-1.976ZM627.044-386.25c.346-.249.578-.405.8-.576q16.559-12.879,33.115-25.76c1.036-.806,1.42-.813,2.438-.022,5.188,4.031,10.349,8.1,15.573,12.083,1.939,1.478,3.689,3.176,6.11,4.059,3.533,1.288,6.926,2.963,10.379,4.472.6.26,1.194.515,1.884.812,0-.637-.034-1.161.01-1.678a1.242,1.242,0,0,0-.576-1.19q-17.008-13.2-33.989-26.443a.807.807,0,0,0-1.2.02q-16.732,13.042-33.5,26.04a2.3,2.3,0,0,0-1.064,2.149C627.1-390.324,627.044-388.353,627.044-386.25Zm35.151,13.635c-.346-.015-.6-.037-.861-.037q-4.036,0-8.071,0c-1.463,0-1.871.411-1.871,1.887q0,12.147,0,24.293c0,.276.026.553.039.817h21.558c0-1.418.021-2.786-.021-4.152a1.061,1.061,0,0,0-.447-.658c-1.334-.989-2.7-1.94-4.035-2.923a14.286,14.286,0,0,1-6.139-10.356c-.241-2.378-.116-4.793-.152-7.191C662.188-371.481,662.195-372.027,662.195-372.615Zm40.547-2.449c0-3.377-.006-6.755.007-10.132a.818.818,0,0,0-.533-.912c-5.969-2.589-11.925-5.206-17.9-7.789a1.432,1.432,0,0,0-1.025.008c-5.922,2.566-11.828,5.168-17.75,7.731a.958.958,0,0,0-.662,1.061c.017,6.438,0,12.877.013,19.315a12.035,12.035,0,0,0,5.206,10.222c4.372,3.181,8.771,6.323,13.141,9.506a.818.818,0,0,0,1.159-.012c4.373-3.179,8.774-6.32,13.144-9.5a12.081,12.081,0,0,0,5.194-10.232C702.752-368.89,702.742-371.977,702.742-375.065Zm-64.853-30.554c.108-.008.173.008.206-.018q3.787-2.93,7.564-5.873a.786.786,0,0,0,.3-.514c.022-1.709.013-3.419.013-5.152h-8.083Zm41.328,59.974-3.479-2.509v2.509Z" transform="translate(-624.338 424)" fill="#505046"/>
    <path id="Path_307" data-name="Path 307" d="M771.752-319.291c0,2.745.01,5.491,0,8.235a9.434,9.434,0,0,1-4.065,8q-5.508,4-11.039,7.965a1.541,1.541,0,0,1-2.273-.029q-5.457-3.934-10.914-7.868A9.474,9.474,0,0,1,739.3-311.1c0-5.649.012-11.3-.012-16.946a1.791,1.791,0,0,1,1.229-1.874q7.078-3.048,14.121-6.179a2.065,2.065,0,0,1,1.811.01q7.051,3.114,14.121,6.182a1.752,1.752,0,0,1,1.192,1.824C771.734-325.151,771.752-322.221,771.752-319.291ZM755.5-297.646c.13-.074.227-.116.311-.176,3.507-2.53,7.027-5.043,10.512-7.6a6.564,6.564,0,0,0,2.727-5.533c.021-5.329,0-10.658.019-15.988a.865.865,0,0,0-.6-.942c-4.133-1.79-8.251-3.611-12.388-5.39a1.564,1.564,0,0,0-1.1.007c-1.56.636-3.1,1.334-4.639,2.011l-8.3,3.639a2.487,2.487,0,0,0-.038.284c0,5.567-.035,11.133.016,16.7a6.441,6.441,0,0,0,2.709,5.22c1.027.783,2.089,1.52,3.137,2.276Q751.682-300.392,755.5-297.646Z" transform="translate(-696.048 369.291)" fill="#c48b60"/>
    <path id="Path_308" data-name="Path 308" d="M763.787-293.519c2.1-3.15,4.151-6.218,6.2-9.286,1.185-1.777,2.362-3.558,3.55-5.333.6-.9,1.348-1.135,2.054-.664s.8,1.265.207,2.151q-5.217,7.834-10.443,15.663a1.412,1.412,0,0,1-2.428.325q-2.509-2.24-5-4.5a1.4,1.4,0,0,1-.3-2.075,1.4,1.4,0,0,1,2.1.066C761.06-295.983,762.387-294.778,763.787-293.519Z" transform="translate(-707.271 352.284)" fill="#c48b60"/>
  </g>
</svg>
