<svg xmlns="http://www.w3.org/2000/svg" width="46" height="45" viewBox="0 0 46 45">
  <g id="Group_2999" data-name="Group 2999" transform="translate(-356 -484)">
    <ellipse id="Ellipse_7" data-name="Ellipse 7" cx="23" cy="22.5" rx="23" ry="22.5" transform="translate(356 484)" fill="#fff"/>
    <path id="icons8_card_exchange_1" d="M7.64,6A2.644,2.644,0,0,0,5,8.64v5.866a2.644,2.644,0,0,0,2.64,2.64h3.484a4.265,4.265,0,0,1,1.162-1.76H7.64a.879.879,0,0,1-.88-.88V11.279H17.9v2.933h1.76V8.64A2.644,2.644,0,0,0,17.025,6ZM24.055,7.164a.88.88,0,0,0-.613,1.511L25.166,10.4l-1.724,1.724a.88.88,0,1,0,1.244,1.244l2.346-2.346a.88.88,0,0,0,0-1.244L24.686,7.431a.88.88,0,0,0-.631-.267ZM7.64,7.76h9.385a.879.879,0,0,1,.88.88v.88H6.76V8.64A.879.879,0,0,1,7.64,7.76Zm7.625,8.212a2.653,2.653,0,0,0-2.64,2.64v5.866a2.653,2.653,0,0,0,2.64,2.64H24.65a2.653,2.653,0,0,0,2.64-2.64V18.611a2.653,2.653,0,0,0-2.64-2.64Zm0,1.76H24.65a.867.867,0,0,1,.88.88v.88H14.385v-.88A.867.867,0,0,1,15.265,17.732ZM8.209,19.483a.88.88,0,0,0-.6.266L5.258,22.1a.88.88,0,0,0,0,1.244L7.6,25.686a.88.88,0,1,0,1.244-1.244L7.124,22.717l1.724-1.724a.88.88,0,0,0-.639-1.51Zm6.176,1.768H25.53v3.226a.867.867,0,0,1-.88.88H15.265a.867.867,0,0,1-.88-.88Z" transform="translate(363 490)" fill="#c48b60"/>
  </g>
</svg>
