<svg id="icons8_laptop_computer" xmlns="http://www.w3.org/2000/svg" width="57.835" height="44.982" viewBox="0 0 57.835 44.982">
  <path id="Path_500" data-name="Path 500" d="M53.687,68.474H42.671a1.377,1.377,0,0,1,0-2.754H53.687A3.193,3.193,0,0,0,56.9,62.507V34.967a3.193,3.193,0,0,0-3.213-3.213H16.967a3.193,3.193,0,0,0-3.213,3.213V61.589a1.377,1.377,0,1,1-2.754,0V34.967A5.955,5.955,0,0,1,16.967,29h36.72a5.955,5.955,0,0,1,5.967,5.967v27.54A5.955,5.955,0,0,1,53.687,68.474Z" transform="translate(-6.41 -29)" fill="#0077fd"/>
  <path id="Path_501" data-name="Path 501" d="M62.172,45.754h-2.3a1.377,1.377,0,1,1,0-2.754h2.3a1.377,1.377,0,0,1,0,2.754Z" transform="translate(-32.107 -36.574)" fill="#0077fd"/>
  <path id="Path_502" data-name="Path 502" d="M57.458,117.262H5.131a4.131,4.131,0,0,1,0-8.262h17.9a1.377,1.377,0,0,1,0,2.754H5.131a1.377,1.377,0,1,0,0,2.754H57.458a1.377,1.377,0,0,1,0,2.754Z" transform="translate(-1 -72.28)" fill="#576068"/>
</svg>
