<svg xmlns="http://www.w3.org/2000/svg" width="42.995" height="33.505" viewBox="0 0 42.995 33.505">
  <path id="icons8_quote_left_1" d="M16.1,5a2.379,2.379,0,0,0-1.913.961L3.942,19.728A4.784,4.784,0,0,0,3,22.579v11.15a4.776,4.776,0,0,0,4.777,4.777h9.554a4.776,4.776,0,0,0,4.777-4.777V24.174A4.777,4.777,0,0,0,17.332,19.4H10.142l7.88-10.585A2.387,2.387,0,0,0,16.1,5ZM39.944,5a2.388,2.388,0,0,0-1.917.961l-10.2,13.7a4.778,4.778,0,0,0-.942,2.85v11.15a4.776,4.776,0,0,0,4.777,4.777h9.554a4.776,4.776,0,0,0,4.777-4.777V24.109a4.776,4.776,0,0,0-4.777-4.777H34.028L41.861,8.816A2.39,2.39,0,0,0,39.944,5Z" transform="translate(-3 -5)" fill="#c48b60"/>
</svg>
