<svg xmlns="http://www.w3.org/2000/svg" width="75.78" height="74.97" viewBox="0 0 75.78 74.97">
  <g id="Group_2259" data-name="Group 2259" transform="translate(0 0)">
    <path id="Path_458" data-name="Path 458" d="M14.525,75.97A8.551,8.551,0,0,1,6,67.457V9.493A8.5,8.5,0,0,1,14.493,1H60.222a1.96,1.96,0,1,1,0,3.92H14.493A4.578,4.578,0,0,0,9.92,9.493V67.457a4.574,4.574,0,0,0,7.611,3.423L31.713,58.272a8.487,8.487,0,0,1,11.282,0L57.177,70.881a4.574,4.574,0,0,0,7.611-3.423V16.025a1.96,1.96,0,1,1,3.92,0V67.457a8.49,8.49,0,0,1-14.13,6.35L40.395,61.2a4.568,4.568,0,0,0-6.075,0L20.137,73.807A8.413,8.413,0,0,1,14.525,75.97Z" transform="translate(-6 -1)" fill="#576068"/>
    <path id="Path_459" data-name="Path 459" d="M114.493,49.819a1.957,1.957,0,0,1-1.96-1.96V9.493A4.578,4.578,0,0,0,107.96,4.92a1.96,1.96,0,1,1,0-3.92,8.5,8.5,0,0,1,8.493,8.493V47.859A1.957,1.957,0,0,1,114.493,49.819Z" transform="translate(-40.673 -1)" fill="#c48b60"/>
    <path id="Path_461" data-name="Path 461" d="M68.228,52.586h0a6.349,6.349,0,0,0-9.08,0l-2.09,2.09-2.09-2.09a6.349,6.349,0,0,0-9.08,0h0a6.349,6.349,0,0,0,0,9.08L55.424,71.2a2.366,2.366,0,0,0,3.332,0l9.538-9.538A6.408,6.408,0,0,0,68.228,52.586Z" transform="translate(-25.683 -27.81)" fill="#c48b60"/>
  </g>
</svg>
