<svg xmlns="http://www.w3.org/2000/svg" width="46" height="45" viewBox="0 0 46 45">
  <g id="Group_3024" data-name="Group 3024" transform="translate(-356 -425.25)">
    <ellipse id="Ellipse_7" data-name="Ellipse 7" cx="23" cy="22.5" rx="23" ry="22.5" transform="translate(356 425.25)" fill="#fff"/>
    <path id="icons8_male_user_2" d="M15.732,4A11.732,11.732,0,1,0,27.463,15.732,11.745,11.745,0,0,0,15.732,4Zm0,1.76A9.972,9.972,0,1,1,5.76,15.732,9.958,9.958,0,0,1,15.732,5.76Zm0,2.933a3.493,3.493,0,0,0-2.637,1.12,3.7,3.7,0,0,0,0,4.8,3.664,3.664,0,0,0,5.275,0,3.7,3.7,0,0,0,0-4.8A3.493,3.493,0,0,0,15.732,8.693Zm0,1.76a1.621,1.621,0,0,1,1.322.529,1.949,1.949,0,0,1,0,2.461,1.621,1.621,0,0,1-1.322.529,1.621,1.621,0,0,1-1.322-.529,1.949,1.949,0,0,1,0-2.461A1.621,1.621,0,0,1,15.732,10.452ZM11.778,16.9a1.926,1.926,0,0,0-1.912,1.912v.635A3.483,3.483,0,0,0,11.653,22.3a7.58,7.58,0,0,0,4.079,1.057A7.58,7.58,0,0,0,19.81,22.3,3.483,3.483,0,0,0,21.6,19.451v-.635A1.926,1.926,0,0,0,19.685,16.9Zm0,1.76h7.907a.141.141,0,0,1,.152.152v.635a1.741,1.741,0,0,1-.974,1.366,5.932,5.932,0,0,1-3.132.781,5.932,5.932,0,0,1-3.132-.781,1.741,1.741,0,0,1-.974-1.366v-.635A.141.141,0,0,1,11.778,18.664Z" transform="translate(363 432.25)" fill="#c48b60"/>
  </g>
</svg>
