<svg xmlns="http://www.w3.org/2000/svg" width="67.997" height="60.712" viewBox="0 0 67.997 60.712">
  <g id="Group_1077" data-name="Group 1077" transform="translate(1.324 1.148)">
    <path id="Path_323" data-name="Path 323" d="M638.1-971.705c-.784,1.47-1.732,1.675-3.091.679Q620.44-981.7,605.875-992.381a.689.689,0,0,0-.982.031q-14.539,10.663-29.091,21.308c-1.152.843-2.155.807-2.791-.1s-.359-1.805.778-2.638q15.088-11.048,30.178-22.094c1.2-.878,1.674-.878,2.855-.014q15.142,11.082,30.274,22.178A7.413,7.413,0,0,1,638.1-972.6Z" transform="translate(-572.68 996.53)" fill="#fff" stroke="#fff" stroke-width="2.5"/>
    <path id="Path_324" data-name="Path 324" d="M618.375-814.363c.258.013.465.032.672.032,4.066,0,8.133-.012,12.2.015.6,0,.742-.177.739-.752q-.033-6.865-.01-13.731a8.515,8.515,0,0,1,6.418-8.546,8.438,8.438,0,0,1,10.512,7.537c.154,2.652.059,5.32.067,7.98q.011,3.449,0,6.9c0,.345-.006.61.484.608,4.279-.016,8.558-.011,12.837-.014a1.918,1.918,0,0,0,.279-.058v-.72q0-13,0-25.994c0-1.265.715-2.028,1.819-1.959a1.622,1.622,0,0,1,1.518,1.32,4.474,4.474,0,0,1,.061.826q0,13.891,0,27.782c0,1.619-.573,2.19-2.188,2.19q-8.047,0-16.095,0c-1.525,0-2.111-.592-2.111-2.126,0-5.3.01-10.6,0-15.9a5.11,5.11,0,0,0-4.882-5.223,5.1,5.1,0,0,0-5.317,5.169c-.018,5.365.007,10.73-.026,16.094a2.376,2.376,0,0,1-.49,1.442,1.89,1.89,0,0,1-1.291.524c-5.6.034-11.2.026-16.8.018a1.667,1.667,0,0,1-1.784-1.684c-.017-.212-.011-.425-.011-.638q0-13.731,0-27.463a6.277,6.277,0,0,1,.042-.891,1.636,1.636,0,0,1,1.738-1.439,1.664,1.664,0,0,1,1.606,1.526c.022.232.012.468.012.7q0,12.837,0,25.675Z" transform="translate(-607.755 869.263)" fill="#fff" stroke="#fff" stroke-width="2.5"/>
  </g>
</svg>
