<svg xmlns="http://www.w3.org/2000/svg" width="82.312" height="70.554" viewBox="0 0 82.312 70.554">
  <g id="Group_2258" data-name="Group 2258" transform="translate(0 0)">
    <path id="Path_464" data-name="Path 464" d="M61.754,95.463H9.493A8.476,8.476,0,0,1,1,86.97V54.96A1.925,1.925,0,0,1,2.96,53a1.925,1.925,0,0,1,1.96,1.96V86.97a4.545,4.545,0,0,0,4.573,4.573H61.754c2.548,0,4.573-2.09,4.573-3.92V54.96a1.96,1.96,0,1,1,3.92,0V87.623C70.247,91.8,66.262,95.463,61.754,95.463Z" transform="translate(-1 -24.909)" fill="#576068"/>
    <path id="Path_465" data-name="Path 465" d="M35.623,62.01a33.191,33.191,0,0,1-24.3-10.387,1.941,1.941,0,0,1,2.809-2.678,29.673,29.673,0,0,0,42.855,0,1.941,1.941,0,0,1,2.809,2.678A32.692,32.692,0,0,1,35.623,62.01ZM68.287,40.452a1.925,1.925,0,0,1-1.96-1.96,4.545,4.545,0,0,0-4.573-4.573H9.493A4.545,4.545,0,0,0,4.92,38.493a1.925,1.925,0,0,1-1.96,1.96A1.925,1.925,0,0,1,1,38.493,8.476,8.476,0,0,1,9.493,30H61.754a8.476,8.476,0,0,1,8.493,8.493A1.925,1.925,0,0,1,68.287,40.452ZM81.352,73.116a1.925,1.925,0,0,1-1.96-1.96V33.92a1.96,1.96,0,1,1,3.92,0V71.156A1.925,1.925,0,0,1,81.352,73.116Z" transform="translate(-1 -16.934)" fill="#c48b60"/>
    <path id="Path_466" data-name="Path 466" d="M91.754,20.452a1.925,1.925,0,0,1-1.96-1.96,4.545,4.545,0,0,0-4.573-4.573H32.96a1.96,1.96,0,1,1,0-3.92H85.222a8.476,8.476,0,0,1,8.493,8.493A1.925,1.925,0,0,1,91.754,20.452Z" transform="translate(-11.402 -10)" fill="#c48b60"/>
  </g>
</svg>
