<svg xmlns="http://www.w3.org/2000/svg" width="16.994" height="16.994" viewBox="0 0 16.994 16.994">
  <path id="Icon_metro-warning" data-name="Icon metro-warning" d="M11.068,3.468l7.121,14.193H3.946L11.068,3.468Zm0-1.54a1.228,1.228,0,0,0-1.01.741L2.8,17.126c-.556.988-.083,1.8,1.051,1.8H18.281c1.133,0,1.606-.808,1.05-1.8h0L12.078,2.669A1.228,1.228,0,0,0,11.068,1.928ZM12.13,15.735a1.062,1.062,0,1,1-1.062-1.062A1.062,1.062,0,0,1,12.13,15.735Zm-1.062-2.124a1.062,1.062,0,0,1-1.062-1.062V9.363a1.062,1.062,0,1,1,2.124,0v3.186A1.062,1.062,0,0,1,11.068,13.611Z" transform="translate(-2.571 -1.928)" fill="#ff4d4d"/>
</svg>
