<svg xmlns="http://www.w3.org/2000/svg" width="22.669" height="17.839" viewBox="0 0 22.669 17.839">
  <path id="icons8_wi-fi" d="M12.975,7.105A15.661,15.661,0,0,0,1.865,11.7.767.767,0,1,0,2.95,12.787a14.167,14.167,0,0,1,20.051,0A.767.767,0,1,0,24.085,11.7,15.665,15.665,0,0,0,12.975,7.105Zm0,4.56a11.116,11.116,0,0,0-7.885,3.261.767.767,0,1,0,1.084,1.084,9.607,9.607,0,0,1,13.6,0,.767.767,0,1,0,1.084-1.084A11.119,11.119,0,0,0,12.975,11.666Zm0,4.559a6.573,6.573,0,0,0-4.662,1.926A.767.767,0,1,0,9.4,19.235a5.047,5.047,0,0,1,7.154,0,.767.767,0,1,0,1.084-1.084A6.574,6.574,0,0,0,12.975,16.225Zm.1,4.63A2.045,2.045,0,1,0,15.116,22.9,2.045,2.045,0,0,0,13.071,20.855Z" transform="translate(-1.641 -7.105)"/>
</svg>
