<svg xmlns="http://www.w3.org/2000/svg" width="19.788" height="21.438" viewBox="0 0 19.788 21.438">
  <path fill="#262e36" id="icons8_home_1" d="M15.867,4a.825.825,0,0,0-.483.177L7.572,10.332A4.125,4.125,0,0,0,6,13.569V24.062a1.386,1.386,0,0,0,1.374,1.374h5.5a1.386,1.386,0,0,0,1.374-1.374v-5.5a.263.263,0,0,1,.275-.275h2.748a.263.263,0,0,1,.275.275v5.5a1.386,1.386,0,0,0,1.374,1.374h5.5a1.386,1.386,0,0,0,1.374-1.374V13.569a4.125,4.125,0,0,0-1.572-3.238L16.4,4.177A.825.825,0,0,0,15.867,4Zm.027,1.874,7.3,5.753a2.47,2.47,0,0,1,.943,1.942V23.788H19.192V18.566a1.937,1.937,0,0,0-1.924-1.924H14.52A1.937,1.937,0,0,0,12.6,18.566v5.222H7.649V13.569a2.47,2.47,0,0,1,.943-1.942Z" transform="translate(-6 -3.999)"/>
</svg>
