<svg xmlns="http://www.w3.org/2000/svg" width="14.984" height="15.378" viewBox="0 0 14.984 15.378">
  <path id="icons8_real_estate" d="M12.281,4a.59.59,0,0,0-.362.124L6.724,8.145a2.978,2.978,0,0,0-1.147,2.339V11.8l1.183-.936v-.377a1.786,1.786,0,0,1,.688-1.4l4.833-3.741,4.833,3.741a1.786,1.786,0,0,1,.688,1.4V18.2H13.069a1.727,1.727,0,0,1-.394,1.183H18a.987.987,0,0,0,.986-.986V10.484a2.978,2.978,0,0,0-1.147-2.339L12.643,4.124A.59.59,0,0,0,12.281,4ZM7.924,11.277a.592.592,0,0,0-.347.127l-2.9,2.285A1.777,1.777,0,0,0,4,15.083v3.309a1,1,0,0,0,.986.986H10.9a1,1,0,0,0,.986-.986V15.083a1.774,1.774,0,0,0-.676-1.394L8.309,11.4A.592.592,0,0,0,7.924,11.277Zm.019,1.345,2.535,2a.59.59,0,0,1,.225.464V18.2H5.183V15.083a.59.59,0,0,1,.226-.464Z" transform="translate(-4 -4)" fill="#fff"/>
</svg>
