<svg xmlns="http://www.w3.org/2000/svg" width="92.816" height="72.19" viewBox="0 0 92.816 72.19">
  <g id="icons8_laptop_computer" transform="translate(0)">
    <path id="Path_500" data-name="Path 500" d="M79.507,92.351H61.828a2.21,2.21,0,1,1,0-4.42H79.507a5.125,5.125,0,0,0,5.156-5.156v-44.2a5.125,5.125,0,0,0-5.156-5.156H20.576a5.125,5.125,0,0,0-5.156,5.156V81.3a2.21,2.21,0,0,1-4.42,0V38.576A9.557,9.557,0,0,1,20.576,29H79.507a9.557,9.557,0,0,1,9.576,9.576v44.2A9.557,9.557,0,0,1,79.507,92.351Z" transform="translate(-3.634 -29)" fill="#c48b60"/>
    <path id="Path_501" data-name="Path 501" d="M64.393,47.42H60.71a2.21,2.21,0,0,1,0-4.42h3.683a2.21,2.21,0,0,1,0,4.42Z" transform="translate(-16.144 -32.687)" fill="#c48b60"/>
    <path id="Path_502" data-name="Path 502" d="M91.606,122.259H7.63A6.63,6.63,0,0,1,7.63,109H36.358a2.21,2.21,0,1,1,0,4.42H7.63a2.21,2.21,0,0,0,0,4.42H91.606a2.21,2.21,0,0,1,0,4.42Z" transform="translate(-1 -50.069)" fill="#576068"/>
  </g>
</svg>
