<svg xmlns="http://www.w3.org/2000/svg" width="86" height="65.524" viewBox="0 0 86 65.524">
  <g id="Group_4900" data-name="Group 4900" transform="translate(-68 -885)">
    <path id="Path_525" data-name="Path 525" d="M37.429,68H27.873A8.855,8.855,0,0,0,19,76.873H46.3A8.855,8.855,0,0,0,37.429,68Z" transform="translate(61.286 842.254)" fill="#c48b60"/>
    <path id="Path_526" data-name="Path 526" d="M87.429,68H77.873A8.855,8.855,0,0,0,69,76.873H96.3A8.855,8.855,0,0,0,87.429,68Z" transform="translate(45.413 842.254)" fill="#c48b60"/>
    <path id="Path_527" data-name="Path 527" d="M84.952,102.159H3.048A2.011,2.011,0,0,1,1,100.111V83.048A2.011,2.011,0,0,1,3.048,81h81.9A2.011,2.011,0,0,1,87,83.048v17.063A2.011,2.011,0,0,1,84.952,102.159ZM5.1,98.063H82.9V85.1H5.1Z" transform="translate(67 838.127)" fill="#576068"/>
    <path id="Path_528" data-name="Path 528" d="M8.048,120.333A2.011,2.011,0,0,1,6,118.286V108.048a2.048,2.048,0,1,1,4.1,0v10.238A2.011,2.011,0,0,1,8.048,120.333Z" transform="translate(65.413 830.19)" fill="#576068"/>
    <path id="Path_529" data-name="Path 529" d="M118.048,120.333A2.011,2.011,0,0,1,116,118.286V108.048a2.048,2.048,0,0,1,4.1,0v10.238A2.011,2.011,0,0,1,118.048,120.333Z" transform="translate(30.492 830.19)" fill="#576068"/>
    <path id="Path_530" data-name="Path 530" d="M83.127,69.222a2.011,2.011,0,0,1-2.048-2.048v-27.3A4.748,4.748,0,0,0,76.3,35.1H14.873A4.748,4.748,0,0,0,10.1,39.873v27.3a2.048,2.048,0,0,1-4.1,0v-27.3A8.855,8.855,0,0,1,14.873,31H76.3a8.855,8.855,0,0,1,8.873,8.873v27.3A2.011,2.011,0,0,1,83.127,69.222Z" transform="translate(65.413 854)" fill="#576068"/>
  </g>
</svg>
