<svg xmlns="http://www.w3.org/2000/svg" width="25.553" height="21.813" viewBox="0 0 25.553 21.813">
  <path id="icons8_group_message_1" d="M8.051,7A4.065,4.065,0,0,0,4,11.051V21.646A4.065,4.065,0,0,0,8.051,25.7H22.385a4.065,4.065,0,0,0,4.051-4.051V11.051A4.065,4.065,0,0,0,22.385,7Zm0,1.87H22.385a2.168,2.168,0,0,1,2.181,2.181v.068l-9.349,5.1-9.349-5.1v-.068A2.168,2.168,0,0,1,8.051,8.87Zm19.632,1.888V22.269a4.676,4.676,0,0,1-4.674,4.674H7.758a4.059,4.059,0,0,0,3.41,1.87H23.009a6.551,6.551,0,0,0,6.544-6.544v-8.1A4.059,4.059,0,0,0,27.683,10.758ZM5.87,13.249l8.9,4.854a.935.935,0,0,0,.9,0l8.9-4.854v8.4a2.168,2.168,0,0,1-2.181,2.181H8.051A2.168,2.168,0,0,1,5.87,21.646Z" transform="translate(-4 -7)" fill="#2ab724"/>
</svg>
