<svg xmlns="http://www.w3.org/2000/svg" width="46" height="45" viewBox="0 0 46 45">
  <g id="Group_3025" data-name="Group 3025" transform="translate(-356 -648.5)">
    <ellipse id="Ellipse_7" data-name="Ellipse 7" cx="23" cy="22.5" rx="23" ry="22.5" transform="translate(356 648.5)" fill="#fff"/>
    <path id="icons8_maintenance_1" d="M8.024,6a.88.88,0,0,0-.593.258L6.258,7.431a.88.88,0,0,0-.12,1.1L8.4,12.074a2.045,2.045,0,0,0,2.947.514l4.584,4.584a3.512,3.512,0,0,0,.482,4.253h0l4.642,4.705h0a3.546,3.546,0,0,0,5.035-5l0,0-4.633-4.7h0a3.513,3.513,0,0,0-4.279-.509l-4.585-4.585A2.046,2.046,0,0,0,12.076,8.4L8.526,6.137A.88.88,0,0,0,8.024,6ZM20.907,6a6.161,6.161,0,0,0-6.144,5.86l1.877,1.875a.875.875,0,0,0,.013-.478,4.382,4.382,0,0,1,4.255-5.5,4.349,4.349,0,0,1,.667.052l-1.9,1.895a2.639,2.639,0,1,0,3.733,3.733l1.858-1.857a4.3,4.3,0,0,1,.038.577A4.411,4.411,0,0,1,22.8,16.134l1.282,1.3a6.161,6.161,0,0,0,2.983-5.275,6.089,6.089,0,0,0-.587-2.611A.879.879,0,0,0,25.061,9.3l-2.9,2.9a.9.9,0,0,1-1.244,0,.878.878,0,0,1,0-1.243l2.912-2.913A.88.88,0,0,0,23.6,6.623,6.106,6.106,0,0,0,20.907,6ZM8.175,8l2.959,1.885.007,0a.277.277,0,0,1,.052.456l-.848.848a.276.276,0,0,1-.456-.052l0-.007L8,8.175Zm4.4,7.479L7.03,21.071a3.546,3.546,0,0,0,2.516,6.046h.013a3.523,3.523,0,0,0,2.5-1.048l3.647-3.676-.205-.206a4.645,4.645,0,0,1-.859-1.219l-3.831,3.862a1.786,1.786,0,1,1-2.535-2.517l5.543-5.587Zm6.362,1.659a1.783,1.783,0,0,1,1.262.536l4.634,4.7,0,0A1.786,1.786,0,1,1,22.3,24.892l-4.641-4.7s0,0,0,0a1.792,1.792,0,0,1,1.277-3.049Z" transform="translate(362 654.5)" fill="#c48b60"/>
  </g>
</svg>
