<svg xmlns="http://www.w3.org/2000/svg" width="69.835" height="69.835" viewBox="0 0 69.835 69.835">
  <g id="icons8_installing_updates" transform="translate(0)">
    <path id="Path_503" data-name="Path 503" d="M88.4,102.113H23.436A2.393,2.393,0,0,1,21,99.677V83.436a2.436,2.436,0,1,1,4.872,0v13.8H85.963v-13.8a2.436,2.436,0,0,1,4.872,0V99.677A2.393,2.393,0,0,1,88.4,102.113Z" transform="translate(-21 -32.278)" fill="#c48b60"/>
    <path id="Path_504" data-name="Path 504" d="M74.5,50.152a2.354,2.354,0,0,0-3.411,0l-8.039,8.039V23.436a2.436,2.436,0,1,0-4.872,0V58.191l-8.039-8.039a2.412,2.412,0,0,0-3.411,3.411L58.911,65.743a1.771,1.771,0,0,0,.406.325c.081,0,.081.081.162.081.081.081.162.081.244.162.081,0,.162.081.244.081s.162.081.244.081c.162,0,.325.081.487.081a1.03,1.03,0,0,0,.487-.081c.081,0,.162-.081.244-.081s.162-.081.244-.081.162-.081.244-.162c.081,0,.081-.081.162-.081a1.425,1.425,0,0,0,.406-.325L74.665,53.563A2.512,2.512,0,0,0,74.5,50.152Z" transform="translate(-25.699 -21)" fill="#576068"/>
  </g>
</svg>
