<svg xmlns="http://www.w3.org/2000/svg" width="41.205" height="54.081" viewBox="0 0 41.205 54.081">
  <g id="icons8_lock_1" transform="translate(-16 -1)">
    <path id="Path_505" data-name="Path 505" d="M49.045,72.629H27.584A8.582,8.582,0,0,1,19,64.045V42.584A8.582,8.582,0,0,1,27.584,34H49.045a8.582,8.582,0,0,1,8.584,8.584V64.045A8.582,8.582,0,0,1,49.045,72.629Z" transform="translate(-1.712 -18.836)" fill="#fff"/>
    <path id="Path_506" data-name="Path 506" d="M62.584,73.292A4.292,4.292,0,1,0,57,77.387v4.49a1.288,1.288,0,1,0,2.575,0v-4.49A4.289,4.289,0,0,0,62.584,73.292Z" transform="translate(-21.69 -38.813)" fill="#c48b60"/>
    <path id="Path_507" data-name="Path 507" d="M49.908,14.22V8.726A7.732,7.732,0,0,0,42.182,1H31.023A7.732,7.732,0,0,0,23.3,8.726V14.22A9.888,9.888,0,0,0,16,23.748V45.209a9.884,9.884,0,0,0,9.872,9.872H47.333A9.884,9.884,0,0,0,57.2,45.209V23.748A9.888,9.888,0,0,0,49.908,14.22ZM25.872,8.726a5.155,5.155,0,0,1,5.151-5.151h11.16a5.155,5.155,0,0,1,5.151,5.151v5.151H25.872ZM54.629,45.209a7.307,7.307,0,0,1-7.3,7.3H25.872a7.307,7.307,0,0,1-7.3-7.3V23.748a7.307,7.307,0,0,1,7.3-7.3H47.333a7.307,7.307,0,0,1,7.3,7.3Z" fill="#576068"/>
  </g>
</svg>
