<svg xmlns="http://www.w3.org/2000/svg" width="22" height="22" viewBox="0 0 22 22">
  <g id="Icon_ionic-ios-checkmark-circle-outline" data-name="Icon ionic-ios-checkmark-circle-outline" transform="translate(-3.375 -3.375)">
    <path id="Path_480" data-name="Path 480" d="M21.762,13.227l-.931-.957a.2.2,0,0,0-.148-.063h0a.192.192,0,0,0-.148.063l-6.452,6.5-2.348-2.348a.2.2,0,0,0-.3,0l-.941.941a.211.211,0,0,0,0,.3l2.962,2.962a.937.937,0,0,0,.619.3.981.981,0,0,0,.613-.291H14.7l7.071-7.108A.226.226,0,0,0,21.762,13.227Z" transform="translate(-1.75 -2.189)" fill="#33cf3d"/>
    <path id="Path_481" data-name="Path 481" d="M14.375,4.856A9.515,9.515,0,1,1,7.643,7.643a9.456,9.456,0,0,1,6.732-2.787m0-1.481a11,11,0,1,0,11,11,11,11,0,0,0-11-11Z" fill="#33cf3d"/>
  </g>
</svg>
