<svg xmlns="http://www.w3.org/2000/svg" width="21.213" height="20.695" viewBox="0 0 21.213 20.695">
  <path id="icons8_pdf_window" d="M7.846,6A2.849,2.849,0,0,0,5,8.846V21.78a2.849,2.849,0,0,0,2.846,2.846H13.31a2.733,2.733,0,0,1,.71-1.552H7.846A1.3,1.3,0,0,1,6.552,21.78V10.656H23.108v8.976q.681-.051,1.358-.052c.066,0,.129.015.194.019V8.846A2.849,2.849,0,0,0,21.815,6Zm0,1.552a.777.777,0,1,1-.157.016A.776.776,0,0,1,7.846,7.552Zm2.587,0a.776.776,0,1,1-.776.776A.776.776,0,0,1,10.432,7.552Zm8.86,7.243a1.758,1.758,0,0,0-1.746,1.746,6.942,6.942,0,0,0,1.313,3.53,16.34,16.34,0,0,1-.613,1.7,10.97,10.97,0,0,0-3.4,1.924h0a1.708,1.708,0,0,0-.529,1.252,1.751,1.751,0,0,0,.51,1.234h0a1.751,1.751,0,0,0,1.235.511,1.868,1.868,0,0,0,1.174-.457h0a5.824,5.824,0,0,0,1.09-1.314,17.3,17.3,0,0,0,1.035-1.868,15.414,15.414,0,0,1,1.691-.487,5.477,5.477,0,0,0,3.417,1.54,1.746,1.746,0,0,0,0-3.492,16.927,16.927,0,0,0-2.962.292,7.614,7.614,0,0,1-.609-.536c-.132-.156-.2-.335-.317-.5a13.076,13.076,0,0,0,.461-3.332A1.758,1.758,0,0,0,19.293,14.8Zm0,1.552a.184.184,0,0,1,.194.194c0,.314-.1.622-.128.937a4.623,4.623,0,0,1-.26-.937A.184.184,0,0,1,19.293,16.348Zm5.174,5.821a.194.194,0,1,1,0,.388,2.947,2.947,0,0,1-1.1-.279C23.74,22.25,24.073,22.168,24.466,22.168Zm-7.434,1.9a5.842,5.842,0,0,1-.776.968.422.422,0,0,1-.2.11.18.18,0,0,1-.136-.056h0a.184.184,0,0,1-.057-.137.161.161,0,0,1,.038-.119A6.908,6.908,0,0,1,17.032,24.065Z" transform="translate(-5 -6)" fill="#505046"/>
</svg>
