<svg xmlns="http://www.w3.org/2000/svg" width="69.848" height="72.52" viewBox="0 0 69.848 72.52">
  <g id="Group_2261" data-name="Group 2261" transform="translate(0 0)">
    <path id="Path_468" data-name="Path 468" d="M12.5,34.122a1.985,1.985,0,0,1-.477-.059A1.958,1.958,0,0,1,10.6,31.686a36.032,36.032,0,0,1,13.66-20.317,1.959,1.959,0,1,1,2.313,3.162,32.1,32.1,0,0,0-12.17,18.1A1.969,1.969,0,0,1,12.5,34.122Z" transform="translate(-10.54 -10.989)" fill="#c48b60"/>
    <path id="Path_469" data-name="Path 469" d="M106.565,34.126a1.964,1.964,0,0,1-1.9-1.483,32.1,32.1,0,0,0-12.17-18.1,1.959,1.959,0,1,1,2.313-3.162A36.01,36.01,0,0,1,108.466,31.7a1.963,1.963,0,0,1-1.424,2.378A2.318,2.318,0,0,1,106.565,34.126Z" transform="translate(-38.677 -10.993)" fill="#c48b60"/>
    <path id="Path_471" data-name="Path 471" d="M69.357,77.181H27.3a8.5,8.5,0,0,1-8.244-10.55l7.075-28.3a22.877,22.877,0,0,1,44.39,0l7.075,28.3a8.5,8.5,0,0,1-8.238,10.55ZM48.328,24.92a18.926,18.926,0,0,0-18.39,14.359l-7.075,28.3A4.569,4.569,0,0,0,27.3,73.262H69.357a4.569,4.569,0,0,0,4.436-5.683l-7.075-28.3A18.926,18.926,0,0,0,48.328,24.92Z" transform="translate(-13.404 -14.46)" fill="#576068"/>
    <path id="Path_472" data-name="Path 472" d="M65.7,113a1.875,1.875,0,0,0-1.137.366,7.795,7.795,0,0,1-9.446,0A1.861,1.861,0,0,0,53.981,113h0a1.959,1.959,0,0,0-1.228,3.488,11.7,11.7,0,0,0,14.176,0A1.959,1.959,0,0,0,65.7,113Z" transform="translate(-24.917 -46.359)" fill="#c48b60"/>
  </g>
</svg>
