<svg xmlns="http://www.w3.org/2000/svg" width="17.96" height="22.451" viewBox="0 0 17.96 22.451">
  <path id="icons8_resume" d="M10.526,4A2.539,2.539,0,0,0,8,6.526v17.4a2.539,2.539,0,0,0,2.526,2.526H23.435a2.539,2.539,0,0,0,2.526-2.526V6.526A2.539,2.539,0,0,0,23.435,4Zm0,1.684H23.435a.829.829,0,0,1,.842.842v17.4a.829.829,0,0,1-.842.842H10.526a.829.829,0,0,1-.842-.842V6.526A.829.829,0,0,1,10.526,5.684ZM16.98,7.368a1.964,1.964,0,1,0,1.964,1.964A1.964,1.964,0,0,0,16.98,7.368Zm-2.526,5.051a.842.842,0,0,0-.842.842v.561c0,1.085,1.508,1.964,3.368,1.964s3.368-.879,3.368-1.964v-.561a.842.842,0,0,0-.842-.842ZM12.771,17.47a.842.842,0,1,0,0,1.684H21.19a.842.842,0,1,0,0-1.684Zm0,3.368a.842.842,0,1,0,0,1.684h6.174a.842.842,0,1,0,0-1.684Z" transform="translate(-8 -4)" fill="#c48b60"/>
</svg>
