<svg xmlns="http://www.w3.org/2000/svg" width="46" height="45" viewBox="0 0 46 45">
  <g id="Group_3000" data-name="Group 3000" transform="translate(-356 -548)">
    <ellipse id="Ellipse_7" data-name="Ellipse 7" cx="23" cy="22.5" rx="23" ry="22.5" transform="translate(356 548)" fill="#fff"/>
    <path id="icons8_paycheque" d="M6.226,9A3.24,3.24,0,0,0,3,12.226V23.371A3.24,3.24,0,0,0,6.226,26.6H24.41a3.24,3.24,0,0,0,3.226-3.226V12.226A3.24,3.24,0,0,0,24.41,9Zm0,1.76H24.41a1.454,1.454,0,0,1,1.466,1.466V23.371a1.454,1.454,0,0,1-1.466,1.466H6.226A1.453,1.453,0,0,1,4.76,23.371V12.226A1.453,1.453,0,0,1,6.226,10.76Zm1.76,1.76a.88.88,0,1,0,0,1.76h6.452a.88.88,0,1,0,0-1.76Zm12.613,0a.88.88,0,0,0-.88.88v.392a2.536,2.536,0,0,0-1.895,2.394,2.5,2.5,0,0,0,2.493,2.493h.722a.733.733,0,1,1,0,1.466h-1a.757.757,0,0,1-.7-.394.88.88,0,1,0-1.574.788,2.5,2.5,0,0,0,1.96,1.343V22.2a.88.88,0,1,0,1.76,0V21.86a2.49,2.49,0,0,0-.44-4.941h-.722a.734.734,0,0,1-.733-.733.783.783,0,0,1,.789-.733h.5a.67.67,0,0,1,.7.394.881.881,0,0,0,1.575-.788,2.366,2.366,0,0,0-1.667-1.3V13.4A.88.88,0,0,0,20.6,12.519ZM7.986,16.039a.88.88,0,1,0,0,1.76h4.106a.88.88,0,1,0,0-1.76Zm1.173,3.519c-1.209,0-2.053,1.109-2.053,2.64a.88.88,0,1,0,1.76,0,.783.783,0,0,1,.171-.495c.081.194.161.4.267.612a1.744,1.744,0,0,0,.231.368.982.982,0,0,0,.778.4h0c.456.009.471-.1.572-.16s.186-.113.278-.176c.184-.127.385-.279.58-.426.116-.088.207-.153.309-.228.069.069.1.1.194.187a3.329,3.329,0,0,0,2.191.8.88.88,0,1,0,0-1.76,1.311,1.311,0,0,1-1.032-.369c-.12-.1-.23-.228-.387-.378a1.228,1.228,0,0,0-.927-.426c-.459,0-.462.11-.56.166s-.182.112-.273.175c-.182.127-.38.277-.574.424l-.058.042a4.149,4.149,0,0,0-.371-.73A1.281,1.281,0,0,0,9.159,19.558Z" transform="translate(364 553)" fill="#c48b60"/>
  </g>
</svg>
