<svg xmlns="http://www.w3.org/2000/svg" width="44.982" height="44.982" viewBox="0 0 44.982 44.982">
  <g id="Group_2299" data-name="Group 2299" transform="translate(0 0)">
    <path id="Path_454" data-name="Path 454" d="M41.52,36.133a1.041,1.041,0,0,1-.578-.171,1.072,1.072,0,0,1-.321-1.482A20.349,20.349,0,1,0,6.309,34.4,1.071,1.071,0,0,1,4.5,35.547a22.492,22.492,0,1,1,37.917.093A1.062,1.062,0,0,1,41.52,36.133Z" transform="translate(-1 -1)" fill="#c48b60"/>
    <path id="Path_455" data-name="Path 455" d="M36.167,102.3a22.418,22.418,0,0,1-15.1-5.826,1.072,1.072,0,0,1-.075-1.514l.1-.114c.011-.014.025-.025.036-.039a21.286,21.286,0,0,1,30.074,0,1.039,1.039,0,0,1,.086.1l.054.054a1.072,1.072,0,0,1-.075,1.514A22.4,22.4,0,0,1,36.167,102.3ZM23.372,95.636a20.358,20.358,0,0,0,25.59,0A19.148,19.148,0,0,0,23.372,95.636Z" transform="translate(-13.676 -57.319)" fill="#576068"/>
    <path id="Path_456" data-name="Path 456" d="M49.211,47.422a8.211,8.211,0,1,1,8.211-8.211A8.221,8.221,0,0,1,49.211,47.422Zm0-14.28a6.069,6.069,0,1,0,6.069,6.069A6.078,6.078,0,0,0,49.211,33.142Z" transform="translate(-26.72 -20.29)" fill="#576068"/>
  </g>
</svg>
