<svg xmlns="http://www.w3.org/2000/svg" width="23.683" height="23.707" viewBox="0 0 23.683 23.707">
  <path id="icons8_refresh" d="M11.851,0a8.116,8.116,0,0,0-8.1,8.1v7.4L1.605,13.362A.935.935,0,1,0,.283,14.684l3.659,3.659a.935.935,0,0,0,1.488,0l3.654-3.654a.935.935,0,1,0-1.322-1.322L5.619,15.505V8.1A6.224,6.224,0,0,1,16.038,3.5.935.935,0,1,0,17.3,2.113,8.079,8.079,0,0,0,11.851,0ZM19,4.972a.935.935,0,0,0-.733.374L14.618,9a.935.935,0,1,0,1.322,1.322l2.144-2.144v7.4a6.224,6.224,0,0,1-10.42,4.606A.935.935,0,1,0,6.406,21.57a8.093,8.093,0,0,0,13.547-5.989v-7.4L22.1,10.321A.935.935,0,1,0,23.419,9L19.76,5.34A.935.935,0,0,0,19,4.972Z" transform="translate(23.683) rotate(90)" fill="#c48b60"/>
</svg>
