<svg xmlns="http://www.w3.org/2000/svg" width="16.359" height="22" viewBox="0 0 16.359 22">
  <path id="icons8_water" d="M16.18,1.967a1.782,1.782,0,0,0-1.342.6,41.514,41.514,0,0,0-4.111,5.5C9.266,10.449,8,13.175,8,15.787a8.18,8.18,0,1,0,16.359,0c0-2.6-1.266-5.323-2.727-7.7a42.579,42.579,0,0,0-4.108-5.515l0,0A1.782,1.782,0,0,0,16.18,1.967Zm0,1.52a.258.258,0,0,1,.192.094,41.262,41.262,0,0,1,3.955,5.305c1.389,2.263,2.5,4.817,2.5,6.9a6.646,6.646,0,1,1-13.292,0c0-2.1,1.111-4.654,2.5-6.917a40.237,40.237,0,0,1,3.954-5.29A.254.254,0,0,1,16.179,3.487Z" transform="translate(-8 -1.967)"/>
</svg>
