<svg xmlns="http://www.w3.org/2000/svg" width="20.228" height="23" viewBox="0 0 20.228 23">
  <path id="icons8_hostel" d="M16.094,3.021a3.147,3.147,0,0,0-1.962.684L7.581,8.916h0a4.214,4.214,0,0,0-1.588,3.3v2.727a.842.842,0,0,0,0,.273v8.146a.842.842,0,0,0,0,.273v1.549a.842.842,0,1,0,1.684,0v-.842H24.514v.842a.842.842,0,1,0,1.684,0V23.625a.842.842,0,0,0,0-.258V15.206a.842.842,0,0,0,0-.258V12.211a4.213,4.213,0,0,0-1.59-3.3l-6.551-5.21A3.149,3.149,0,0,0,16.094,3.021Zm0,1.679a1.465,1.465,0,0,1,.914.322h0l6.551,5.21a2.526,2.526,0,0,1,.954,1.978v2.024h-2.4a2.474,2.474,0,0,0,.157-.842,2.539,2.539,0,0,0-2.526-2.526h-4.49a2.528,2.528,0,0,0-2.222,1.357,1.679,1.679,0,1,0-2.673,2.01H7.675V12.211a2.525,2.525,0,0,1,.954-1.978l6.551-5.21A1.465,1.465,0,0,1,16.094,4.7Zm-.842,7.85h4.49a.842.842,0,0,1,0,1.684H14.41v-.842A.829.829,0,0,1,15.252,12.551ZM7.675,15.919H24.514v6.735H22.1a2.458,2.458,0,0,0,.172-.842,2.539,2.539,0,0,0-2.526-2.526h-4.49a2.528,2.528,0,0,0-2.222,1.357,1.679,1.679,0,1,0-2.673,2.01H7.675Zm7.577,5.051h4.49a.842.842,0,0,1,0,1.684H14.41v-.842A.829.829,0,0,1,15.252,20.97Z" transform="translate(-5.98 -3.021)" fill="#c48b60"/>
</svg>
