<svg xmlns="http://www.w3.org/2000/svg" width="21.986" height="21.986" viewBox="0 0 21.986 21.986">
  <path fill="#262e36" id="icons8_login_rounded" d="M14.993,4a10.993,10.993,0,1,0,10.3,14.856.825.825,0,1,0-1.544-.58,9.344,9.344,0,1,1,0-6.566.825.825,0,1,0,1.544-.58A11,11,0,0,0,14.993,4Zm.259,6.863a.825.825,0,0,0-.567.249l-3.3,3.3a.825.825,0,0,0,0,1.166l3.3,3.3a.825.825,0,1,0,1.166-1.166l-1.892-1.892,11.2-.01a.825.825,0,1,0,0-1.649l-11.2.01,1.889-1.889a.825.825,0,0,0-.6-1.415Z" transform="translate(-4 -4)"/>
</svg>
