<svg xmlns="http://www.w3.org/2000/svg" width="16.359" height="20.961" viewBox="0 0 16.359 20.961">
  <path id="icons8_gas" d="M16.18,3a.767.767,0,0,0-.492.179,31.944,31.944,0,0,0-3.809,3.932C9.975,9.45,8,12.55,8,15.781a8.186,8.186,0,0,0,7.763,8.159,4.147,4.147,0,0,0,.833,0,8.186,8.186,0,0,0,7.763-8.159c0-3.454-2.249-6.759-4.272-9.142a.767.767,0,0,0-1.352.5V9.39a.767.767,0,1,1-1.534,0V3.99a.767.767,0,0,0-.259-.574c-.166-.147-.27-.235-.27-.235A.767.767,0,0,0,16.18,3Zm-.511,2.274V9.39a2.3,2.3,0,1,0,4.6,0V9.38c1.4,1.986,2.556,4.3,2.556,6.4a6.625,6.625,0,0,1-2.777,5.4,4.052,4.052,0,0,0,.221-1.312,7.8,7.8,0,0,0-1.812-4.451A15.787,15.787,0,0,0,16.7,13.428a.766.766,0,0,0-1.04,0A15.787,15.787,0,0,0,13.9,15.419a7.8,7.8,0,0,0-1.812,4.451,4.052,4.052,0,0,0,.221,1.312,6.625,6.625,0,0,1-2.777-5.4c0-2.579,1.732-5.486,3.535-7.7A29.591,29.591,0,0,1,15.668,5.274Zm.511,9.872a8.213,8.213,0,0,1,1.045,1.188,6.781,6.781,0,0,1,1.511,3.537,2.544,2.544,0,0,1-2.293,2.543,2.672,2.672,0,0,1-.526,0h0a2.544,2.544,0,0,1-2.293-2.543,6.781,6.781,0,0,1,1.511-3.537A8.213,8.213,0,0,1,16.18,15.146Z" transform="translate(-8 -3)"/>
</svg>
