<svg xmlns="http://www.w3.org/2000/svg" width="21.558" height="22.451" viewBox="0 0 21.558 22.451">
  <path id="icons8_settings_3" d="M15.574,4a11.248,11.248,0,0,0-2.553.3.842.842,0,0,0-.646.729L12.2,6.659A1.683,1.683,0,0,1,9.845,8.017h0l-1.5-.659a.842.842,0,0,0-.954.2,11.2,11.2,0,0,0-2.563,4.418.842.842,0,0,0,.308.923l1.328.973a1.684,1.684,0,0,1,0,2.716l-1.328.972a.842.842,0,0,0-.308.923A11.2,11.2,0,0,0,7.394,22.9a.842.842,0,0,0,.954.194l1.5-.659A1.684,1.684,0,0,1,12.2,23.791l.179,1.629a.842.842,0,0,0,.645.728,10.947,10.947,0,0,0,5.107,0,.842.842,0,0,0,.646-.729l.179-1.629A1.684,1.684,0,0,1,21.3,22.433l1.5.659a.842.842,0,0,0,.954-.194,11.208,11.208,0,0,0,2.563-4.419.842.842,0,0,0-.308-.923l-1.328-.972a1.684,1.684,0,0,1,0-2.716l1.328-.972a.842.842,0,0,0,.308-.923,11.209,11.209,0,0,0-2.563-4.419.842.842,0,0,0-.954-.194l-1.5.659a1.684,1.684,0,0,1-2.351-1.358L18.773,5.03a.842.842,0,0,0-.645-.728A11.221,11.221,0,0,0,15.574,4Zm0,1.684a9.17,9.17,0,0,1,1.6.191l.105.968a3.369,3.369,0,0,0,4.7,2.716l.89-.391a9.463,9.463,0,0,1,1.6,2.764l-.789.579a3.368,3.368,0,0,0,0,5.431l.789.579a9.463,9.463,0,0,1-1.6,2.764l-.89-.391a3.369,3.369,0,0,0-4.7,2.716l-.105.968a9.2,9.2,0,0,1-1.6.191,9.174,9.174,0,0,1-1.6-.191l-.105-.968a3.369,3.369,0,0,0-4.7-2.716l-.89.391a9.457,9.457,0,0,1-1.6-2.764l.789-.579a3.369,3.369,0,0,0,0-5.432l-.789-.579a9.458,9.458,0,0,1,1.6-2.764l.889.391a3.367,3.367,0,0,0,4.7-2.715l.105-.968A9.2,9.2,0,0,1,15.574,5.684Zm0,5.051a4.49,4.49,0,1,0,4.49,4.49A4.5,4.5,0,0,0,15.574,10.735Zm0,1.684a2.806,2.806,0,1,1-2.806,2.806A2.794,2.794,0,0,1,15.574,12.419Z" transform="translate(-4.795 -4)" fill="#c48b60"/>
</svg>
