<svg xmlns="http://www.w3.org/2000/svg" width="204.91" height="40.18" viewBox="0 0 204.91 40.18">
  <g id="Group_4995" data-name="Group 4995" transform="translate(-192 -399.41)">
    <g id="Group_4992" data-name="Group 4992" transform="translate(192 401.592)">
      <g id="Group_4991" data-name="Group 4991" transform="translate(0 0)">
        <path id="Path_556" data-name="Path 556" d="M213.137,430.227a3.354,3.354,0,0,0-3.353,3.354s0,.007,0,.01,0,.007,0,.01v11.972h0c-.005,5.979-8.987,7.376-10.838,1.554a5.125,5.125,0,0,1-.239-1.554h0V433.306h-.028a3.335,3.335,0,0,0-6.651,0h-.015v.147c0,.043-.013.083-.013.127s.011.084.013.127v11.867H192c0,9.24,10.162,14.925,18.262,10.44l.011-.007a3.345,3.345,0,0,0,6.217-1.721V433.6s0-.007,0-.01,0-.007,0-.01A3.354,3.354,0,0,0,213.137,430.227Z" transform="translate(-192 -420.171)" fill="#c48b60"/>
        <path id="Path_557" data-name="Path 557" d="M344.06,411.612a3.353,3.353,0,1,0-3.353-3.353A3.354,3.354,0,0,0,344.06,411.612Z" transform="translate(-281.654 -404.905)" fill="#c48b60"/>
        <path id="Path_558" data-name="Path 558" d="M344.06,430.51a3.353,3.353,0,0,0-3.353,3.353v20.263a3.353,3.353,0,0,0,6.707,0V433.863A3.353,3.353,0,0,0,344.06,430.51Z" transform="translate(-281.654 -420.342)" fill="#c48b60"/>
        <path id="Path_559" data-name="Path 559" d="M290.83,441.175c0-9.24-10.162-14.925-18.263-10.44l-.01.007a3.345,3.345,0,0,0-6.217,1.721v20.685s0,.007,0,.01,0,.007,0,.01a3.353,3.353,0,1,0,6.706,0s0-.007,0-.01,0-.007,0-.01V441.176h0c.006-5.979,8.987-7.376,10.838-1.554a5.1,5.1,0,0,1,.239,1.554h0v12.268h.028a3.335,3.335,0,0,0,6.651,0h.015V453.3c0-.043.013-.083.013-.127s-.011-.084-.013-.127V441.175Z" transform="translate(-236.819 -419.498)" fill="#c48b60"/>
      </g>
    </g>
    <g id="Group_4994" data-name="Group 4994" transform="translate(265.283 399.41)">
      <g id="Group_4993" data-name="Group 4993" transform="translate(0)">
        <path id="Path_560" data-name="Path 560" d="M476.783,419.878a1.332,1.332,0,0,0,.227-1.161h0l-.811-2.151a1.69,1.69,0,0,0-.766-2.686v-4.353c0-.016,0-.029,0-.045a5.359,5.359,0,0,1,.975-.527.539.539,0,0,0,.243-.417.53.53,0,0,0-.192-.443.267.267,0,0,0-.029-.021l-13.656-8.561a.51.51,0,0,0-.315-.1.54.54,0,0,0-.334.115l-13.64,8.55a.115.115,0,0,0-.027.021.525.525,0,0,0-.195.443.549.549,0,0,0,.245.419l5.683,3.559s.187-1.452.225-1.581l0-.016,0,0c.529-1.708,4.267-2.715,7.9-2.715s7.365,1.007,7.893,2.715l.006,0,0,.022c.034.116.268,1.72.268,1.72.675-.424,2.506-1.652,3.878-2.512v3.731h0a1.69,1.69,0,0,0-.766,2.686l-.008.021a14.308,14.308,0,0,0-10.932-5.034h0a14.138,14.138,0,0,0-14.252,14.012v.005h0a13.789,13.789,0,0,0,1.132,5.482,14.11,14.11,0,0,0,5.177,6.159,14.3,14.3,0,0,0,3.726,1.753,14.471,14.471,0,0,0,4.215.625h0a14.426,14.426,0,0,0,5.524-1.093,14.239,14.239,0,0,0,6.272-5.057,13.809,13.809,0,0,0,2.455-7.868h0a3.339,3.339,0,0,0-.264-1.305,3.339,3.339,0,0,1,.264,1.305,13.739,13.739,0,0,0-1.021-5.191A1.324,1.324,0,0,0,476.783,419.878Zm-21.669,5.694a7.549,7.549,0,0,1,15.09,0v0a7.087,7.087,0,0,1-.581,2.819,7.4,7.4,0,0,1-2.72,3.225,7.6,7.6,0,0,1-1.98.931,7.814,7.814,0,0,1-5.224-.249,7.541,7.541,0,0,1-3.318-2.671,7.176,7.176,0,0,1-.935-1.9,7.093,7.093,0,0,1-.332-2.156h0m19.25-10.624a.758.758,0,1,1-.164.825A.758.758,0,0,1,474.363,414.947Z" transform="translate(-419.779 -399.41)" fill="#505046"/>
        <path id="Path_561" data-name="Path 561" d="M383.245,416v-7.745h0a3.353,3.353,0,1,0-6.706,0h0v30.41h0c0,.007,0,.014,0,.021a3.353,3.353,0,1,0,6.706,0c0-.007,0-.014,0-.021h0V426.7a5.028,5.028,0,0,1,.421-2.022c2.269-5.212,10.654-3.876,10.656,2.022v12h0a3.352,3.352,0,0,0,6.7,0h0v-12.04C401,417.689,391.347,411.971,383.245,416Z" transform="translate(-376.539 -402.723)" fill="#505046"/>
        <path id="Path_562" data-name="Path 562" d="M552.1,448.979c0-7.707-9.7-8.6-11.907-9.382-.5-.176-2.1-.539-1.862-1.967.169-1.014,1.4-1.258,2.789-1.258,2.4,0,3.77,1,5.064,1.53a3.329,3.329,0,0,0,1.356.317c.019,0,.037.007.057.007h0a3.354,3.354,0,0,0,3.354-3.353,4.143,4.143,0,0,0-1.813-2.979,12.933,12.933,0,0,0-3.153-1.384c-6.955-2.426-14.4.323-14.4,7.657h.005c0,.017,0,.032,0,.049v.028h0c.013,4.916,4.108,7.291,8.922,8.385,1.071.226,4.88.615,4.88,2.35,0,1.484-1.751,1.848-3.236,1.847-2.487,0-6.526-2.464-8.007-2.6a3.291,3.291,0,0,0-3.353,3.353,3.461,3.461,0,0,0,1.861,2.988c3.034,1.718,5.869,2.966,9.5,2.966,6.273,0,9.943-3.858,9.943-8.554Z" transform="translate(-469.539 -417.641)" fill="#505046"/>
        <path id="Path_563" data-name="Path 563" d="M608.393,434.614a3.314,3.314,0,0,0-.486.049l0-.013c-2.625.387-4.338-.071-4.334-2.683l0-11.623h4.635a3.353,3.353,0,1,0,0-6.706h-4.634V407.3a3.353,3.353,0,1,0-6.706,0h0v6.339h-2.041a3.353,3.353,0,1,0,0,6.706h2.041v11.444c.012,6.231,4.3,10.633,12.013,9.5l0-.014a3.346,3.346,0,0,0-.486-6.658Z" transform="translate(-506.121 -402.144)" fill="#505046"/>
      </g>
      <path id="Path_564" data-name="Path 564" d="M675.659,449.163c0-7.707-9.7-8.605-11.907-9.382-.5-.176-2.1-.539-1.862-1.966.169-1.014,1.4-1.258,2.788-1.258,2.4,0,3.77,1,5.064,1.53a3.316,3.316,0,0,0,1.356.317c.019,0,.037.007.057.007h0a3.353,3.353,0,0,0,3.354-3.353,4.142,4.142,0,0,0-1.813-2.978,12.922,12.922,0,0,0-3.153-1.384c-6.955-2.427-14.4.323-14.4,7.657h.005c0,.016,0,.032,0,.048v.029h0c.014,4.916,4.108,7.291,8.922,8.385,1.071.226,4.881.615,4.881,2.35,0,1.484-1.751,1.847-3.236,1.847-2.488,0-6.526-2.464-8.007-2.6a3.29,3.29,0,0,0-3.353,3.353,3.462,3.462,0,0,0,1.861,2.988c3.034,1.717,5.869,2.965,9.5,2.965,6.272,0,9.942-3.858,9.943-8.554Z" transform="translate(-544.031 -417.751)" fill="#505046"/>
    </g>
  </g>
</svg>
