<svg xmlns="http://www.w3.org/2000/svg" width="277.762" height="54.465" viewBox="0 0 277.762 54.465">
  <g id="Group_4996" data-name="Group 4996" transform="translate(-192 -399.41)">
    <g id="Group_4992" data-name="Group 4992" transform="translate(192 402.368)">
      <g id="Group_4991" data-name="Group 4991" transform="translate(0 0)">
        <path id="Path_556" data-name="Path 556" d="M220.651,430.227a4.546,4.546,0,0,0-4.545,4.546s0,.009,0,.014,0,.009,0,.014V451.03h0c-.007,8.1-12.182,10-14.691,2.106a6.947,6.947,0,0,1-.324-2.106h0V434.4h-.038a4.521,4.521,0,0,0-9.016,0h-.02v.2c0,.059-.017.113-.017.172s.015.114.017.172V451.03H192c-.005,12.525,13.775,20.231,24.755,14.152l.015-.009a4.534,4.534,0,0,0,8.428-2.334V434.8s0-.009,0-.014,0-.009,0-.014A4.546,4.546,0,0,0,220.651,430.227Z" transform="translate(-192 -416.596)" fill="#fff"/>
        <path id="Path_557" data-name="Path 557" d="M345.252,414a4.546,4.546,0,1,0-4.545-4.545A4.546,4.546,0,0,0,345.252,414Z" transform="translate(-260.658 -404.905)" fill="#fff"/>
        <path id="Path_558" data-name="Path 558" d="M345.252,430.51a4.545,4.545,0,0,0-4.545,4.545v27.467a4.546,4.546,0,0,0,9.091,0V435.055A4.545,4.545,0,0,0,345.252,430.51Z" transform="translate(-260.658 -416.727)" fill="#fff"/>
        <path id="Path_559" data-name="Path 559" d="M299.537,445.465c.005-12.525-13.775-20.231-24.756-14.152l-.014.009a4.534,4.534,0,0,0-8.428,2.334v28.039s0,.009,0,.014,0,.009,0,.014a4.545,4.545,0,1,0,9.091,0s0-.009,0-.014,0-.009,0-.014V445.466h0c.008-8.1,12.183-10,14.691-2.106a6.914,6.914,0,0,1,.324,2.106h0v16.629h.038a4.521,4.521,0,0,0,9.016,0h.02v-.2c0-.059.018-.113.018-.172s-.015-.114-.018-.172V445.465Z" transform="translate(-226.323 -416.081)" fill="#fff"/>
      </g>
    </g>
    <g id="Group_4994" data-name="Group 4994" transform="translate(291.337 399.41)">
      <g id="Group_4993" data-name="Group 4993" transform="translate(0)">
        <path id="Path_560" data-name="Path 560" d="M486.923,427.155a1.805,1.805,0,0,0,.307-1.573h0l-1.1-2.915a2.291,2.291,0,0,0-1.038-3.641v-5.9c0-.021,0-.04,0-.061a7.265,7.265,0,0,1,1.322-.714.73.73,0,0,0,.329-.565.718.718,0,0,0-.26-.6.363.363,0,0,0-.04-.029l-18.511-11.6a.692.692,0,0,0-.426-.141.732.732,0,0,0-.452.156l-18.489,11.59a.156.156,0,0,0-.037.029.712.712,0,0,0-.264.6.744.744,0,0,0,.333.568l7.7,4.824s.253-1.968.3-2.144l0-.022.006,0c.717-2.315,5.784-3.68,10.7-3.68s9.983,1.365,10.7,3.68l.008,0,0,.03c.046.158.363,2.331.363,2.331.915-.574,3.4-2.24,5.256-3.405v5.058h0a2.291,2.291,0,0,0-1.038,3.642l-.011.029a19.4,19.4,0,0,0-14.818-6.823h0a19.164,19.164,0,0,0-19.318,18.994v.007h0a18.691,18.691,0,0,0,1.534,7.431,19.126,19.126,0,0,0,7.018,8.349,19.383,19.383,0,0,0,5.05,2.376,19.614,19.614,0,0,0,5.714.847h0a19.556,19.556,0,0,0,7.488-1.481,19.3,19.3,0,0,0,8.5-6.855,18.719,18.719,0,0,0,3.328-10.665h0a4.525,4.525,0,0,0-.357-1.769,4.525,4.525,0,0,1,.357,1.769,18.623,18.623,0,0,0-1.384-7.036A1.794,1.794,0,0,0,486.923,427.155Zm-29.373,7.718a10.233,10.233,0,0,1,20.455,0v.005a9.607,9.607,0,0,1-.788,3.821,10.037,10.037,0,0,1-3.687,4.372,10.3,10.3,0,0,1-2.683,1.262,10.592,10.592,0,0,1-7.081-.338,10.222,10.222,0,0,1-4.5-3.62A9.729,9.729,0,0,1,458,437.8a9.615,9.615,0,0,1-.451-2.922h0m26.094-14.4a1.027,1.027,0,1,1-.222,1.119A1.028,1.028,0,0,1,483.644,420.471Z" transform="translate(-409.653 -399.41)" fill="#fff"/>
        <path id="Path_561" data-name="Path 561" d="M385.63,419.949v-10.5h0a4.545,4.545,0,0,0-9.091,0h0v41.221h0c0,.01,0,.019,0,.029a4.545,4.545,0,1,0,9.091,0c0-.01,0-.019,0-.029h0V434.443a6.815,6.815,0,0,1,.571-2.74c3.076-7.066,14.443-5.254,14.445,2.74v16.268h0a4.544,4.544,0,0,0,9.089,0h0V434.39C409.7,422.234,396.612,414.483,385.63,419.949Z" transform="translate(-376.539 -401.947)" fill="#fff"/>
        <path id="Path_562" data-name="Path 562" d="M559.673,455.852c.006-10.447-13.152-11.664-16.141-12.717-.68-.239-2.846-.73-2.524-2.666.229-1.374,1.9-1.705,3.78-1.705,3.257,0,5.11,1.355,6.865,2.075a4.513,4.513,0,0,0,1.838.43c.026,0,.051.009.077.009v0h0a4.546,4.546,0,0,0,4.546-4.545,5.616,5.616,0,0,0-2.457-4.038,17.533,17.533,0,0,0-4.275-1.877c-9.428-3.289-19.514.438-19.514,10.38h.007c0,.023-.006.044-.006.066v.038h0c.018,6.664,5.569,9.884,12.093,11.366,1.452.307,6.616.833,6.616,3.186,0,2.012-2.373,2.5-4.386,2.5-3.371,0-8.846-3.341-10.854-3.525a4.461,4.461,0,0,0-4.545,4.545,4.692,4.692,0,0,0,2.522,4.051c4.113,2.328,7.956,4.02,12.877,4.02,8.5,0,13.477-5.23,13.477-11.595Z" transform="translate(-447.76 -413.371)" fill="#fff"/>
        <path id="Path_563" data-name="Path 563" d="M614.408,445.518a4.5,4.5,0,0,0-.658.066l0-.018c-3.558.524-5.881-.1-5.874-3.637l0-15.755h6.283a4.545,4.545,0,1,0,0-9.091h-6.282v-8.592a4.545,4.545,0,1,0-9.091,0h0v8.592h-2.766a4.545,4.545,0,0,0,0,9.091h2.766v15.512c.017,8.446,5.826,14.413,16.284,12.874l0-.018a4.536,4.536,0,0,0-.658-9.025Z" transform="translate(-475.775 -401.504)" fill="#fff"/>
      </g>
      <path id="Path_564" data-name="Path 564" d="M683.232,456.036c.006-10.447-13.152-11.664-16.141-12.718-.68-.238-2.846-.73-2.523-2.666.229-1.374,1.9-1.706,3.78-1.706,3.257,0,5.11,1.355,6.865,2.075a4.5,4.5,0,0,0,1.838.43c.026,0,.051.009.077.009h0a4.546,4.546,0,0,0,4.546-4.545,5.614,5.614,0,0,0-2.457-4.037A17.515,17.515,0,0,0,674.945,431c-9.428-3.29-19.514.438-19.514,10.379h.007c0,.022-.006.043-.006.066v.039h0c.018,6.664,5.569,9.883,12.093,11.366,1.452.306,6.616.833,6.616,3.186,0,2.011-2.373,2.5-4.386,2.5-3.372,0-8.846-3.34-10.854-3.524a4.46,4.46,0,0,0-4.545,4.545,4.693,4.693,0,0,0,2.523,4.051c4.113,2.328,7.956,4.019,12.877,4.019,8.5,0,13.477-5.23,13.477-11.595Z" transform="translate(-504.808 -413.456)" fill="#fff"/>
    </g>
  </g>
</svg>
