<svg xmlns="http://www.w3.org/2000/svg" width="310" height="92" viewBox="0 0 310 92">
  <defs>
    <style>
      .cls-1 {
        fill: #262e36;
        font-size: 18px;
        font-family: SegoeUI, Segoe UI;
      }

      .cls-2 {
        fill: #ebd7c8;
      }

      .cls-3 {
        fill: #c48b60;
      }
    </style>
  </defs>
  <g id="Group_5147" data-name="Group 5147" transform="translate(-1032 -1107)">
    <g id="Group_5082" data-name="Group 5082" transform="translate(1135 1106.678)">
      <text id="É_de_Lisboa_Portugal" data-name="É de Lisboa, Portugal" class="cls-1" transform="translate(162 23.494)"><tspan x="-165.19" y="0">É de Lisboa, Portugal</tspan></text>
      <g id="Group_5080" data-name="Group 5080" transform="translate(174)">
        <rect id="Rectangle_3535" data-name="Rectangle 3535" class="cls-2" width="33" height="34" rx="8" transform="translate(0 0.322)"/>
        <path id="icons8_Location" class="cls-3" d="M15.186,4A8.181,8.181,0,0,0,8.964,17.5l0,0,0,0s3.482,3.974,4.722,5.157a2.174,2.174,0,0,0,2.986,0C18.092,21.315,21.4,17.5,21.4,17.5l0,0,0,0A8.18,8.18,0,0,0,15.186,4Zm0,1.445A6.735,6.735,0,0,1,20.309,16.56c-.007.008-3.394,3.882-4.627,5.058a.7.7,0,0,1-.992,0c-1.031-.983-4.617-5.046-4.627-5.058h0A6.736,6.736,0,0,1,15.186,5.445Zm0,3.852a2.868,2.868,0,0,0-2.165.92,3.04,3.04,0,0,0,0,3.939,3.008,3.008,0,0,0,4.33,0,3.04,3.04,0,0,0,0-3.939A2.868,2.868,0,0,0,15.186,9.3Zm0,1.445a1.331,1.331,0,0,1,1.085.434,1.6,1.6,0,0,1,0,2.02,1.331,1.331,0,0,1-1.085.434A1.331,1.331,0,0,1,14.1,13.2a1.6,1.6,0,0,1,0-2.02A1.331,1.331,0,0,1,15.186,10.742Z" transform="translate(1 3)"/>
      </g>
    </g>
    <g id="Group_5081" data-name="Group 5081" transform="translate(1039 1165)">
      <text id="Fala_português_inglês_e_espanhol" data-name="Fala português, inglês e espanhol" class="cls-1" transform="translate(258 23)"><tspan x="-264.023" y="0">Fala português, inglês e espanhol</tspan></text>
      <g id="Group_5079" data-name="Group 5079" transform="translate(270)">
        <rect id="Rectangle_3536" data-name="Rectangle 3536" class="cls-2" width="33" height="34" rx="8"/>
        <path id="icons8_location_1" class="cls-3" d="M13.631,4a9.71,9.71,0,1,0,9.5,8.1c-.094.129-.192.255-.3.376s-.516.582-1.015,1.131c0,.008,0,.014,0,.022a8.135,8.135,0,0,1-.365,2.408H10.418a18.425,18.425,0,0,1,0-4.815h2.819a5.681,5.681,0,0,1-.475-1.445H10.68c.62-2.666,1.83-4.334,2.951-4.334.035,0,.071.006.106.009A5.8,5.8,0,0,1,15.076,4.12,9.59,9.59,0,0,0,13.631,4Zm4.815,0a4.8,4.8,0,0,0-4.815,4.757,4.711,4.711,0,0,0,1.159,3.091l0,0,0,0s1.882,2.124,2.61,2.808a1.528,1.528,0,0,0,2.08,0c.815-.767,2.612-2.81,2.612-2.81l0,0,0,0a4.714,4.714,0,0,0,1.159-3.091A4.8,4.8,0,0,0,18.446,4Zm0,1.445a3.332,3.332,0,0,1,3.371,3.313,3.25,3.25,0,0,1-.8,2.142v0c-.007.008-1.88,2.113-2.515,2.71a.066.066,0,0,1-.1,0h0c-.517-.486-2.509-2.7-2.516-2.712a3.25,3.25,0,0,1-.8-2.141A3.332,3.332,0,0,1,18.446,5.445Zm-7.787.566A11.38,11.38,0,0,0,9.2,9.779H6.411A8.229,8.229,0,0,1,10.66,6.011Zm7.787,1.6a1.2,1.2,0,1,0,1.2,1.2A1.2,1.2,0,0,0,18.446,7.612ZM5.808,11.223h3.16a19.218,19.218,0,0,0,0,4.815H5.81a8.146,8.146,0,0,1,0-4.815Zm.61,6.26h2.8a11.454,11.454,0,0,0,1.447,3.768A8.24,8.24,0,0,1,6.418,17.483Zm4.262,0h5.9c-.619,2.665-1.826,4.334-2.947,4.334S11.3,20.149,10.68,17.483Zm7.372,0h2.791A8.24,8.24,0,0,1,16.6,21.251,11.408,11.408,0,0,0,18.052,17.483Z" transform="translate(3 3)"/>
      </g>
    </g>
  </g>
</svg>
